<svg width="38" height="38" viewBox="0 0 38 38" fill="none" xmlns="http://www.w3.org/2000/svg">
<path d="M10.4167 0C4.66458 0 0 4.66458 0 10.4167V27.0833C0 32.8354 4.66458 37.5 10.4167 37.5H27.0833C32.8354 37.5 37.5 32.8354 37.5 27.0833V10.4167C37.5 4.66458 32.8354 0 27.0833 0H10.4167ZM31.25 4.16667C32.4 4.16667 33.3333 5.1 33.3333 6.25C33.3333 7.4 32.4 8.33333 31.25 8.33333C30.1 8.33333 29.1667 7.4 29.1667 6.25C29.1667 5.1 30.1 4.16667 31.25 4.16667ZM18.75 8.33333C24.5021 8.33333 29.1667 12.9979 29.1667 18.75C29.1667 24.5021 24.5021 29.1667 18.75 29.1667C12.9979 29.1667 8.33333 24.5021 8.33333 18.75C8.33333 12.9979 12.9979 8.33333 18.75 8.33333ZM18.75 12.5C17.0924 12.5 15.5027 13.1585 14.3306 14.3306C13.1585 15.5027 12.5 17.0924 12.5 18.75C12.5 20.4076 13.1585 21.9973 14.3306 23.1694C15.5027 24.3415 17.0924 25 18.75 25C20.4076 25 21.9973 24.3415 23.1694 23.1694C24.3415 21.9973 25 20.4076 25 18.75C25 17.0924 24.3415 15.5027 23.1694 14.3306C21.9973 13.1585 20.4076 12.5 18.75 12.5Z" fill="black"/>
</svg>
